<svg id="Layer_1" data-name="Layer 1" xmlns="http://www.w3.org/2000/svg" viewBox="0 0 590.64 247.13"><defs><style>.cls-1{fill:#767c86;}.cls-2{fill:#4c5462;}.cls-3{fill:#4b5461;}.cls-4{fill:#676e79;}.cls-5{fill:#fdfdfd;}.cls-6{fill:#00d563;}</style></defs><path class="cls-1" d="M591.5,261.13c-.93-.12-1.91.39-2.78-.27h2.8c.11.07.14.13.1.19A.14.14,0,0,1,591.5,261.13Z" transform="translate(-216.99 -260.86)"/><path class="cls-2" d="M591.5,261.13a2.45,2.45,0,0,0,0-.27H594C593.23,261.45,592.34,261.08,591.5,261.13Z" transform="translate(-216.99 -260.86)"/><path class="cls-3" d="M598.38,261.14c-.73-.06-1.52.29-2.19-.28h2.18c.09.05.13.12.1.18S598.41,261.14,598.38,261.14Z" transform="translate(-216.99 -260.86)"/><path class="cls-4" d="M598.38,261.14a2.62,2.62,0,0,1,0-.28h2.17C599.89,261.5,599.1,261,598.38,261.14Z" transform="translate(-216.99 -260.86)"/><path class="cls-5" d="M607.69,261.43a4.64,4.64,0,0,1-2-.23C606.37,261.24,607.07,260.94,607.69,261.43Z" transform="translate(-216.99 -260.86)"/><path class="cls-5" d="M743.58,358.11a5.07,5.07,0,0,1,.38,2.61C743.23,359.94,743.63,359,743.58,358.11Z" transform="translate(-216.99 -260.86)"/><path class="cls-6" d="M287.31,301.54H294c1.36.51,2.81,0,4.17.36,10.84,1.16,21.3,3.67,31.06,8.65,12.46,6.37,22.4,15.26,29.24,27.71,3.28,6,4.84,12.23,5.9,18.77a20,20,0,0,1,0,5.46c-2.13,6.61-7.7,8.36-13.62,9.62a20.11,20.11,0,0,1-5.48,0c-5.67-.88-10.7-2.73-12.55-8.9-.72-2.38-.68-4.91-1.27-7.36-1.39-5.73-5.17-9.77-9.44-13.19-7.07-5.66-15.47-8.45-24.39-9.74a3.73,3.73,0,0,0-.74.05c-1-.45-2.15,0-3.18-.36h-6c-1,.4-2.14-.11-3.14.37-14,1.72-26.26,6.39-33.49,19.6a8.52,8.52,0,0,0-1.42,4.91c-.58,1,0,2.06-.41,3,0,.34,0,.68,0,1,.36.84-.08,1.8.36,2.64.35,5.3,3.32,9.39,6.91,12.75,8.37,7.85,18.54,11.72,30,12.15,2.7.54,5.46-.1,8.17.35l3.85.15c.85.43,1.8,0,2.66.35,10.71,1.58,21,4.35,30.58,9.65a67.67,67.67,0,0,1,26.63,26.19c3.48,6.1,5,12.56,6,19.29a37.29,37.29,0,0,1,0,7.47c-.69,5.58-1.68,11.19-4.34,16.13-4.18,7.72-9.09,15-16,20.67a79.33,79.33,0,0,1-36.14,16.91c-3.4.62-6.79.95-10.19,1.41-1.88.44-3.83-.18-5.71.36a3.16,3.16,0,0,0-2.08,0c-2-.56-4.15.1-6.2-.37l-2.38-.13c-.82-.47-1.79,0-2.63-.38a79.78,79.78,0,0,1-28.75-9c-5.73-3-11.27-6.42-15.86-11-7.7-7.73-13.47-16.61-15.89-27.47a43.41,43.41,0,0,1-1-12.22c.2-3.44,2.46-5.53,5.13-7.31,2.37-1.57,5.1-2.09,7.82-2.63a20.52,20.52,0,0,1,5.48,0c3.44.79,6.8,1.78,9.65,4a10.23,10.23,0,0,1,4,7.63c.35.87,0,1.84.35,2.7.28,4.74,2.75,8.53,5.85,11.72,7.92,8.17,17.79,12.3,29.1,13.12,1,.47,2.13,0,3.15.36h6c1-.39,2.17.09,3.2-.36A44.77,44.77,0,0,0,320.38,468,29,29,0,0,0,330,457.39c2-4.15,2.94-8.54,1.58-13.21-2.81-9.71-10-15.05-18.59-19.2-5.78-2.8-11.93-3.84-18.21-4.51-2.7-.55-5.47.09-8.18-.36L282.8,420c-.85-.42-1.81,0-2.67-.35A75.42,75.42,0,0,1,260.2,415c-11.27-4.31-21.64-10.07-29.66-19.32A55.05,55.05,0,0,1,218.13,372a33.72,33.72,0,0,0-.68-4c-.41-.83.09-1.79-.39-2.61-.28-7.38.18-14.63,2.93-21.64a57.92,57.92,0,0,1,11.09-18C242.9,312.65,258.15,306.34,275,303c2.68-.53,5.42-.77,8.13-1.14C284.5,301.47,286,302,287.31,301.54Z" transform="translate(-216.99 -260.86)"/><path class="cls-6" d="M745.76,360.9c14.56,1.87,27.71,7.13,39,16.53A73.34,73.34,0,0,1,806.24,407a34.8,34.8,0,0,1,1.21,5,6.09,6.09,0,0,1,0,3c-.29,1.11-.56,2.23-.88,3.34-1.08,3.68-4,5.49-7.24,6.89q-20.57,8.75-41.14,17.54c-6.1,2.6-12.19,5.24-18.29,7.85a13.63,13.63,0,0,1-1.65.5,6.22,6.22,0,0,1-3,0c-6.55-1.19-10.1-5.7-12.44-11.41a12.93,12.93,0,0,1-1.19-4.69,16.56,16.56,0,0,1,0-5,10.29,10.29,0,0,1,6.8-9.1c12.37-5.13,24.61-10.58,36.95-15.78,1.56-.66,1.35-1,.4-1.91A40.13,40.13,0,0,0,754,395.76a37.42,37.42,0,0,0-17.8-3.24,43.07,43.07,0,0,0-28.67,13.09,39.83,39.83,0,0,0-11.07,21.76,32.92,32.92,0,0,0-.26,4.45,12.15,12.15,0,0,0,0,4.88A36.54,36.54,0,0,0,706,461.32c6.64,7.26,14.85,12.44,24.86,14.09a28.57,28.57,0,0,0,3.22.17,34.22,34.22,0,0,0,8.34,0c7.31-.38,13.61-3.39,19.54-7.41A34.52,34.52,0,0,0,772.09,458a11,11,0,0,1,10.42-5.32c8.1.3,14.48,3.8,18.21,11.23a8.79,8.79,0,0,1-.48,9.19,76.31,76.31,0,0,1-20.81,21.78A71.31,71.31,0,0,1,753.79,506c-1.84.39-3.59,1.18-5.52,1.12-.85.41-1.83-.06-2.67.38l-2.34.13a62.74,62.74,0,0,1-10,0c-9.4-.27-18.21-3.07-26.76-6.64A65.27,65.27,0,0,1,689,489.57a69.91,69.91,0,0,1-15.33-19,74.41,74.41,0,0,1-8.43-23.24c-.31-1.78-.15-3.58-.62-5.32-.39-1,.11-2.14-.36-3.15v-9.18c.48-1,0-2.12.36-3.14.75-10.81,4.38-20.8,9.75-30a69.31,69.31,0,0,1,27.74-26.95,82.17,82.17,0,0,1,28.21-8.66c.88-.33,1.85.05,2.71-.35h10.08C743.93,361,744.89,360.57,745.76,360.9Z" transform="translate(-216.99 -260.86)"/><path class="cls-6" d="M418.76,374.7c-.27,8.3,2.42,15.82,6.78,22.62a41.13,41.13,0,0,0,19.62,16.47,38.52,38.52,0,0,0,29.7-.06,41.28,41.28,0,0,0,23.21-22.86,50.59,50.59,0,0,0,4-19c.08-3.17,2.39-5.56,5-7.08,7.33-4.37,18.59-3.89,24.34,2.85a15.52,15.52,0,0,1,2.17,3.89,5.74,5.74,0,0,1,.16,2.22q0,61,0,122a6.68,6.68,0,0,1-.14,2.23c-1.87,5.95-6.59,8.28-12.13,9.6-1,.41-2.16-.09-3.18.37h-.64c-1-.47-2.13,0-3.16-.36-5.33-.85-9.82-2.9-12-8.3a3.87,3.87,0,0,1-.38-1.58q.06-25.35,0-50.72A3.73,3.73,0,0,1,504,443.5a53,53,0,0,0,9.3-7.54c3-3.22,3.13-6.68.71-10.16a8.83,8.83,0,0,0-10.54-2.59c-3.27,1.64-5.7,6.11-4.2,9.33s-.61,3.86-2.47,5c-9.2,5.57-19.28,8.42-29.9,9.59-1,.36-2.17-.1-3.2.35h-7.1c-1.19-.49-2.49.06-3.69-.37a67.5,67.5,0,0,1-21.14-5.23A49.75,49.75,0,0,1,419.46,435c-1.29-.06-.88.94-.89,1.55,0,2.91,0,5.81,0,8.72q0,25,0,50.07a9.19,9.19,0,0,1-.14,2.72c-1.9,5.91-6.49,8.42-12.13,9.61-1,.39-2.15-.1-3.16.37h-.64c-1-.46-2.15,0-3.18-.37-4.47-.8-8.53-2.3-11.06-6.44a6.75,6.75,0,0,1-1.08-3.16,7.32,7.32,0,0,1-.13-2.24q0-61,0-122a6.22,6.22,0,0,1,.15-2.23c1.67-6.37,6.69-8.51,12.4-9.33A18.88,18.88,0,0,1,414.75,366a12.78,12.78,0,0,1,3.64,5.48C418.79,372.55,418.3,373.68,418.76,374.7Z" transform="translate(-216.99 -260.86)"/><path class="cls-6" d="M642.21,497.52c-1.3,6.13-6.9,9.06-12.11,10.1-.86.36-1.83-.06-2.68.36h-2.1c-.86-.42-1.84,0-2.7-.37-5.18-.9-9.44-3-11.56-8.25a4,4,0,0,1-.36-1.62c0-1.25-.07-2.5-.07-3.74,0-59.2.12-118.4-.12-177.6,0-9,4.13-12.54,11.14-14.22l1-.26c1-.45,2.13.11,3.13-.39h1.65c.86.42,1.83,0,2.7.36a41.8,41.8,0,0,1,5.94,2.24,12,12,0,0,1,6.17,7.86,7.14,7.14,0,0,1,.16,2.48V495A7.14,7.14,0,0,1,642.21,497.52Z" transform="translate(-216.99 -260.86)"/><path class="cls-6" d="M568,507.6A15.78,15.78,0,0,1,557.78,502a7,7,0,0,1-1.6-4c-.08-.91-.09-1.83-.09-2.75q0-61.44.06-122.88c0-3.64,2.21-6.07,5.11-7.77,7.12-4.17,18.07-3.59,23.67,2.4a13.27,13.27,0,0,1,2.7,4.95,6.86,6.86,0,0,1,.16,2.47q0,60.54,0,121.06a6.43,6.43,0,0,1-.17,2.47c-1.92,5.86-6.48,8.4-12.1,9.61-.86.35-1.82-.07-2.67.35h-2.09C569.89,507.57,568.91,508,568,507.6Z" transform="translate(-216.99 -260.86)"/><path class="cls-6" d="M587.62,327.48c-1.82,6.51-8.72,9.66-15,9.87-.66,0-1.32.07-2,.1-.84-.45-1.8,0-2.64-.37a15.75,15.75,0,0,1-10.42-5.79,6.52,6.52,0,0,1-1.47-4.27c0-4.25.21-8.52-.13-12.74-.46-5.94,3.55-9.62,8.25-11.22,1.24-.42,2.51-.76,3.77-1.14,1-.45,2.14.11,3.14-.39h1.65c.86.42,1.82,0,2.69.36,1.84.65,3.75,1.16,5.52,2a11.87,11.87,0,0,1,6.57,7.62A142,142,0,0,1,587.62,327.48Z" transform="translate(-216.99 -260.86)"/><path class="cls-5" d="M642.21,497.52c0-7.84,0-15.67,0-23.5q0-80.5,0-161c0-.33,0-.66.05-1,.71.79.41,1.76.41,2.64q0,90.12,0,180.24C642.62,495.77,642.92,496.73,642.21,497.52Z" transform="translate(-216.99 -260.86)"/><path class="cls-5" d="M533.57,498q0-61.74,0-123.5c0-1,0-2,0-3,.72.78.41,1.74.42,2.62q0,60.62,0,121.23C534,496.26,534.26,497.22,533.57,498Z" transform="translate(-216.99 -260.86)"/><path class="cls-5" d="M387.18,371.52q0,63.24,0,126.49c-.67-.8-.38-1.76-.38-2.65q0-60.6,0-121.2C386.78,373.27,386.48,372.31,387.18,371.52Z" transform="translate(-216.99 -260.86)"/><path class="cls-5" d="M587.62,498q0-63,0-126c.71.79.41,1.75.41,2.63q0,60.38,0,120.74C588,496.28,588.35,497.24,587.62,498Z" transform="translate(-216.99 -260.86)"/><path class="cls-5" d="M418.41,498q0-30.69.08-61.38c0-.5-1.13-2.19,1-1.68-1.08.82-.62,2-.63,3q0,28.59,0,57.16C418.8,496.09,419.12,497.13,418.41,498Z" transform="translate(-216.99 -260.86)"/><path class="cls-5" d="M286.64,420.11a36.12,36.12,0,0,1,8.18.36C292.1,420.34,289.34,421,286.64,420.11Z" transform="translate(-216.99 -260.86)"/><path class="cls-5" d="M742.4,475.57a18.78,18.78,0,0,1-8.34,0Z" transform="translate(-216.99 -260.86)"/><path class="cls-5" d="M294.62,389.41a36.61,36.61,0,0,1-8.17-.35C289.17,389.18,291.93,388.56,294.62,389.41Z" transform="translate(-216.99 -260.86)"/><path class="cls-5" d="M364.31,452.51c0-2.49,0-5,0-7.47A13.93,13.93,0,0,1,364.31,452.51Z" transform="translate(-216.99 -260.86)"/><path class="cls-5" d="M364.32,362.48V357A7.72,7.72,0,0,1,364.32,362.48Z" transform="translate(-216.99 -260.86)"/><path class="cls-5" d="M345.22,372.08l5.48,0A7.83,7.83,0,0,1,345.22,372.08Z" transform="translate(-216.99 -260.86)"/><path class="cls-5" d="M235.54,437.43h-5.48A7.83,7.83,0,0,1,235.54,437.43Z" transform="translate(-216.99 -260.86)"/><path class="cls-5" d="M721.66,430v5A6.44,6.44,0,0,1,721.66,430Z" transform="translate(-216.99 -260.86)"/><path class="cls-5" d="M696.16,436.7a8.8,8.8,0,0,1,0-4.88Z" transform="translate(-216.99 -260.86)"/><path class="cls-5" d="M452.87,447.1a8.11,8.11,0,0,1,3.69.37C455.33,447.38,454,447.92,452.87,447.1Z" transform="translate(-216.99 -260.86)"/><path class="cls-5" d="M664.57,426.53a7.28,7.28,0,0,1-.36,3.14C664.28,428.62,663.82,427.51,664.57,426.53Z" transform="translate(-216.99 -260.86)"/><path class="cls-5" d="M664.21,438.85a6.62,6.62,0,0,1,.36,3.15C663.81,441,664.28,439.91,664.21,438.85Z" transform="translate(-216.99 -260.86)"/><path class="cls-5" d="M418.76,374.7a8.35,8.35,0,0,1-.37-3.18C419.17,372.5,418.69,373.63,418.76,374.7Z" transform="translate(-216.99 -260.86)"/><path class="cls-5" d="M249.15,360.49a4.93,4.93,0,0,1,.41-3C249.44,358.47,249.92,359.56,249.15,360.49Z" transform="translate(-216.99 -260.86)"/><path class="cls-5" d="M463.66,447.47a6.47,6.47,0,0,1,3.2-.35C465.87,447.87,464.74,447.4,463.66,447.47Z" transform="translate(-216.99 -260.86)"/><path class="cls-5" d="M735.28,451.1l3,0A2.55,2.55,0,0,1,735.28,451.1Z" transform="translate(-216.99 -260.86)"/><path class="cls-5" d="M296.85,476.58a5.57,5.57,0,0,1-3.2.36C294.64,476.17,295.78,476.65,296.85,476.58Z" transform="translate(-216.99 -260.86)"/><path class="cls-5" d="M287.61,476.94a5.66,5.66,0,0,1-3.15-.36C285.51,476.64,286.63,476.18,287.61,476.94Z" transform="translate(-216.99 -260.86)"/><path class="cls-5" d="M745.76,360.9a5.25,5.25,0,0,1-2.69-.35C744,360.59,744.94,360.2,745.76,360.9Z" transform="translate(-216.99 -260.86)"/><path class="cls-5" d="M249.52,364.16a4.09,4.09,0,0,1-.36-2.64C249.87,362.32,249.48,363.27,249.52,364.16Z" transform="translate(-216.99 -260.86)"/><path class="cls-5" d="M280.13,419.61a4.72,4.72,0,0,1,2.67.35C281.9,419.92,280.94,420.31,280.13,419.61Z" transform="translate(-216.99 -260.86)"/><path class="cls-5" d="M301.13,389.91a4.76,4.76,0,0,1-2.66-.35C299.37,389.6,300.32,389.21,301.13,389.91Z" transform="translate(-216.99 -260.86)"/><path class="cls-5" d="M568,337.08a5.68,5.68,0,0,1,2.64.37C569.79,337.4,568.83,337.8,568,337.08Z" transform="translate(-216.99 -260.86)"/><path class="cls-5" d="M733,360.55a4.74,4.74,0,0,1-2.71.35C731.1,360.2,732.07,360.6,733,360.55Z" transform="translate(-216.99 -260.86)"/><path class="cls-5" d="M249.51,451.74a4.34,4.34,0,0,1-.35-2.7C249.88,449.86,249.48,450.83,249.51,451.74Z" transform="translate(-216.99 -260.86)"/></svg>